<svg xmlns="http://www.w3.org/2000/svg" xmlns:v="https://svgstorm.com"
viewBox = "0 0 903 289"
width="903"
height="289">
<g fill="None" fill-opacity="0.0" stroke="#000000" stroke-opacity="0.00" stroke-width="0.3"><path d="
M 0.00 289.00 
L 903.00 289.00
L 903.00 0.00
L 0.00 0.00
L 0.00 289.00
M 874.00 15.00 
C 864.47 14.63 869.00 26.28 868.00 33.00
C 862.24 31.66 865.30 19.92 866.00 15.00
C 863.68 14.21 860.33 16.20 859.00 15.00
C 861.85 11.86 872.03 11.63 874.00 15.00
M 895.00 19.00 
C 895.25 20.70 895.11 22.46 895.00 24.00
C 895.12 27.49 895.07 30.48 896.00 34.00
C 891.03 34.23 895.11 26.59 893.00 23.00
C 892.86 22.68 891.04 21.23 891.00 21.00
C 888.74 25.17 887.93 30.06 887.00 34.00
C 882.62 31.84 881.36 24.79 881.00 19.00
C 876.31 20.67 879.19 27.02 878.00 31.00
C 877.94 31.36 880.05 33.57 877.89 33.90 C 875.73 34.22 874.27 33.43 876.00 32.00
C 873.46 27.46 878.48 18.12 877.00 13.00
C 883.04 15.21 883.74 21.57 884.00 27.00
C 891.66 25.27 886.28 14.80 895.00 13.00
C 892.98 14.89 895.60 16.75 895.00 19.00
M 252.00 73.00 
C 253.06 84.72 251.80 97.26 252.00 109.00 C 252.20 120.74 252.46 134.53 252.00 146.00 C 251.54 157.47 253.50 171.30 252.00 182.00 C 250.50 192.70 256.34 210.01 250.00 217.00
C 243.26 224.43 229.70 225.57 221.31 231.31 C 212.91 237.04 201.26 240.53 192.31 245.31 C 183.35 250.08 172.50 255.85 163.31 259.31 C 154.11 262.76 142.77 273.23 134.00 272.00
C 120.28 270.08 108.40 258.34 95.25 253.75 C 82.11 249.15 69.74 240.68 56.77 235.23 C 43.81 229.78 31.14 222.01 18.00 217.00
C 18.00 169.00 18.00 121.00 18.00 73.00
C 20.29 67.49 32.99 66.31 38.23 62.23 C 43.47 58.15 53.41 56.55 59.68 52.68 C 65.95 48.81 74.48 45.99 81.23 42.23 C 87.97 38.47 95.36 36.43 102.23 32.23 C 109.10 28.03 117.15 26.93 124.08 22.08 C 131.00 17.22 138.30 16.81 145.23 21.77 C 152.15 26.73 160.21 27.48 167.08 31.92 C 173.94 36.37 181.23 37.85 188.08 41.92 C 194.92 46.00 202.98 48.24 209.70 52.31 C 216.41 56.37 224.35 57.89 230.69 62.31 C 237.04 66.72 246.95 67.22 252.00 73.00
M 378.00 41.00 
C 377.81 55.75 378.26 73.55 378.00 88.00 C 377.74 102.45 374.28 122.81 395.00 118.00
C 400.03 133.35 376.68 135.34 367.77 126.23 C 358.86 117.12 362.53 100.10 362.00 87.00 C 361.47 73.90 362.40 55.57 362.00 42.00
C 367.52 42.33 372.75 41.79 378.00 41.00
M 546.00 41.00 
C 546.67 57.50 544.67 75.32 547.00 91.00
C 551.07 82.65 557.26 81.73 562.75 73.75 C 568.24 65.77 579.38 64.39 589.00 66.00
C 582.55 75.56 572.41 83.80 564.00 92.00
C 571.24 105.50 583.77 116.51 591.00 130.00
C 581.18 131.60 570.41 130.57 566.23 121.77 C 562.05 112.97 555.70 110.63 552.00 102.00
C 549.34 101.52 548.68 105.53 546.00 105.00
C 546.00 113.33 546.00 121.67 546.00 130.00
C 540.67 130.00 535.33 130.00 530.00 130.00
C 530.00 100.67 530.00 71.33 530.00 42.00
C 535.52 42.33 540.75 41.79 546.00 41.00
M 669.00 41.00 
C 669.00 51.00 669.00 61.00 669.00 71.00
C 679.22 62.46 701.95 59.00 708.31 74.70 C 714.66 90.39 709.13 112.76 711.00 130.00
C 705.67 130.00 700.33 130.00 695.00 130.00
C 694.47 116.16 695.71 99.57 695.00 86.00 C 694.29 72.43 672.93 73.91 670.08 86.08 C 667.24 98.25 669.97 116.92 669.00 130.00
C 663.67 130.00 658.33 130.00 653.00 130.00
C 653.00 100.67 653.00 71.33 653.00 42.00
C 658.44 42.04 663.88 42.29 669.00 41.00
M 807.00 44.00 
C 807.00 48.33 807.00 52.67 807.00 57.00
C 801.67 57.00 796.33 57.00 791.00 57.00
C 791.00 52.67 791.00 48.33 791.00 44.00
C 796.33 44.00 801.67 44.00 807.00 44.00
M 336.00 85.00 
C 352.00 88.16 356.39 113.93 341.75 123.75 C 327.11 133.57 303.60 128.98 286.00 130.00
C 286.00 101.67 286.00 73.33 286.00 45.00
C 302.37 46.68 323.57 41.22 338.07 48.93 C 352.58 56.64 348.01 78.91 336.00 85.00
M 436.00 64.00 
C 459.67 67.38 468.24 102.11 454.08 120.08 C 439.92 138.05 406.18 134.16 400.02 109.98 C 393.87 85.79 407.13 59.88 436.00 64.00
M 519.00 68.00 
C 518.82 72.55 517.04 77.32 515.00 81.00
C 499.42 70.93 484.84 79.69 485.00 98.00 C 485.16 116.31 501.19 123.76 517.00 114.00
C 518.72 117.72 517.74 122.14 519.00 126.00
C 494.95 140.01 469.10 125.37 469.00 98.00 C 468.90 70.63 493.83 55.44 519.00 68.00
M 643.00 69.00 
C 641.40 72.93 640.09 76.90 639.00 81.00
C 623.20 71.29 607.79 79.21 608.00 98.00 C 608.21 116.79 625.41 123.20 641.00 114.00
C 647.53 134.95 615.05 135.55 602.92 125.08 C 590.79 114.61 587.64 91.21 596.92 76.92 C 606.21 62.63 629.14 60.14 643.00 69.00
M 777.00 130.00 
C 772.67 130.00 768.33 130.00 764.00 130.00
C 764.07 127.48 762.92 125.27 762.00 123.00
C 756.25 128.79 747.13 132.16 739.00 131.00 C 730.87 129.84 723.75 125.64 722.22 116.78 C 720.70 107.91 722.87 99.97 731.08 95.08 C 739.29 90.19 747.31 92.50 757.00 90.00 C 766.69 87.50 753.53 70.32 746.00 76.00 C 738.47 81.68 727.03 79.87 727.68 71.32 C 728.33 62.77 742.92 65.12 750.00 64.00 C 757.08 62.88 768.59 65.04 772.77 72.23 C 776.95 79.42 777.05 89.78 777.00 99.00 C 776.95 108.22 777.04 120.50 777.00 130.00
M 880.00 130.00 
C 874.67 130.00 869.33 130.00 864.00 130.00
C 863.97 116.10 864.19 99.90 863.67 86.33 C 863.15 72.76 841.96 73.66 839.03 86.03 C 836.10 98.40 839.09 116.76 838.00 130.00
C 832.67 130.00 827.33 130.00 822.00 130.00
C 822.00 108.67 822.00 87.33 822.00 66.00
C 827.81 66.20 838.16 63.64 836.00 73.00
C 845.60 63.66 869.07 57.50 876.75 73.25 C 884.44 88.99 877.70 112.50 880.00 130.00
M 807.00 66.00 
C 807.00 87.33 807.00 108.67 807.00 130.00
C 801.67 130.00 796.33 130.00 791.00 130.00
C 791.00 108.67 791.00 87.33 791.00 66.00
C 796.33 66.00 801.67 66.00 807.00 66.00
M 674.00 155.00 
C 673.65 169.47 674.47 187.93 674.00 202.00 C 673.53 216.07 671.65 236.94 691.00 231.00
C 692.44 234.69 691.93 238.95 692.00 243.00
C 672.65 249.38 656.11 238.54 658.00 218.00 C 659.89 197.46 656.58 176.57 658.00 156.00
C 663.58 156.66 668.40 154.34 674.00 155.00
M 345.00 177.00 
C 323.37 162.19 300.09 175.41 300.00 201.00 C 299.91 226.59 323.66 239.01 346.00 226.00
C 351.85 236.39 344.60 242.81 334.93 243.93 C 325.26 245.04 314.81 245.35 306.31 241.69 C 297.80 238.03 293.40 233.96 288.75 226.25 C 284.09 218.55 282.32 207.18 283.00 198.00 C 283.68 188.82 284.83 179.95 290.77 172.77 C 296.71 165.59 301.09 162.22 310.07 159.07 C 319.06 155.93 328.94 157.02 339.07 158.93 C 349.20 160.83 351.50 168.01 345.00 177.00
M 643.00 157.00 
C 643.00 161.67 643.00 166.33 643.00 171.00
C 637.67 171.00 632.33 171.00 627.00 171.00
C 627.00 166.33 627.00 161.67 627.00 157.00
C 632.33 157.00 637.67 157.00 643.00 157.00
M 396.00 178.00 
C 418.95 181.73 426.12 217.65 412.08 234.08 C 398.04 250.52 364.63 249.10 358.22 223.78 C 351.82 198.45 366.52 173.21 396.00 178.00
M 555.00 243.00 
C 549.67 243.00 544.33 243.00 539.00 243.00
C 538.41 229.20 539.93 212.75 538.67 199.33 C 537.41 185.91 516.16 187.83 514.03 200.03 C 511.89 212.22 513.49 229.98 513.00 243.00
C 507.67 243.00 502.33 243.00 497.00 243.00
C 497.00 221.67 497.00 200.33 497.00 179.00
C 503.05 179.10 512.68 176.80 511.00 186.00
C 520.99 177.74 544.13 171.49 551.77 187.23 C 559.41 202.97 552.73 225.55 555.00 243.00
M 617.00 182.00 
C 616.74 189.99 611.97 195.77 605.32 191.68 C 598.68 187.59 590.78 190.39 586.25 195.25 C 581.71 200.11 581.28 210.45 582.33 216.67 C 583.38 222.89 586.29 229.65 593.23 231.77 C 600.17 233.89 609.08 229.82 615.00 227.00
C 621.91 248.16 590.43 249.32 577.77 239.23 C 565.11 229.14 561.65 206.27 570.31 191.31 C 578.96 176.34 602.61 174.52 617.00 182.00
M 445.00 179.00 
C 444.63 192.98 445.49 208.14 445.00 222.00 C 444.51 235.86 468.06 235.64 467.98 221.98 C 467.89 208.32 468.09 192.83 468.00 179.00
C 473.33 179.00 478.67 179.00 484.00 179.00
C 481.09 194.92 489.89 223.46 479.23 236.23 C 468.57 249.00 444.70 248.86 433.75 236.25 C 422.80 223.63 430.18 195.23 428.00 179.00
C 433.67 179.00 439.33 179.00 445.00 179.00
M 643.00 179.00 
C 643.00 200.33 643.00 221.67 643.00 243.00
C 637.67 243.00 632.33 243.00 627.00 243.00
C 627.00 221.67 627.00 200.33 627.00 179.00
C 632.33 179.00 637.67 179.00 643.00 179.00 Z"/>
</g>
<g fill="None" fill-opacity="0.0" stroke="#000000" stroke-opacity="0.80" stroke-width="0.3"><path d="
M 874.00 15.00 
C 872.03 11.63 861.85 11.86 859.00 15.00
C 860.33 16.20 863.68 14.21 866.00 15.00
C 865.30 19.92 862.24 31.66 868.00 33.00
C 869.00 26.28 864.47 14.63 874.00 15.00 Z"/>
</g>
<g fill="None" fill-opacity="0.0" stroke="#000102" stroke-opacity="0.80" stroke-width="0.3"><path d="
M 876.00 32.00 
C 877.22 34.18 877.58 32.01 878.00 31.00
C 879.19 27.02 876.31 20.67 881.00 19.00
C 881.36 24.79 882.62 31.84 887.00 34.00
C 887.93 30.06 888.74 25.17 891.00 21.00
C 891.58 19.93 891.82 18.47 893.00 18.00
C 893.00 19.67 893.00 21.33 893.00 23.00
C 895.11 26.59 891.03 34.23 896.00 34.00
C 895.07 30.48 895.12 27.49 895.00 24.00
C 894.94 22.34 895.08 20.66 895.00 19.00
C 895.60 16.75 892.98 14.89 895.00 13.00
C 886.28 14.80 891.66 25.27 884.00 27.00
C 883.74 21.57 883.04 15.21 877.00 13.00
C 878.48 18.12 873.46 27.46 876.00 32.00 Z"/>
</g>
<g fill="None" fill-opacity="0.0" stroke="#83BBE5" stroke-opacity="1.00" stroke-width="0.3"><path d="
M 18.00 73.00 
C 26.01 75.83 33.34 80.58 41.23 83.77 C 49.12 86.96 56.81 92.25 64.69 95.31 C 72.58 98.36 79.94 103.21 87.69 106.31 C 95.45 109.40 103.52 115.35 111.23 117.77 C 118.94 120.19 127.15 129.00 135.00 129.00
C 142.54 129.00 150.33 119.70 158.08 118.08 C 165.82 116.45 172.86 109.25 180.69 106.69 C 188.53 104.14 196.66 98.95 204.23 95.23 C 211.80 91.51 219.89 88.63 227.23 84.23 C 234.57 79.83 243.80 77.54 251.00 73.00
C 251.36 72.77 252.00 73.00 252.00 73.00
C 246.95 67.22 237.04 66.72 230.69 62.31 C 224.35 57.89 216.41 56.37 209.70 52.31 C 202.98 48.24 194.92 46.00 188.08 41.92 C 181.23 37.85 173.94 36.37 167.08 31.92 C 160.21 27.48 152.15 26.73 145.23 21.77 C 138.30 16.81 131.00 17.22 124.08 22.08 C 117.15 26.93 109.10 28.03 102.23 32.23 C 95.36 36.43 87.97 38.47 81.23 42.23 C 74.48 45.99 65.95 48.81 59.68 52.68 C 53.41 56.55 43.47 58.15 38.23 62.23 C 32.99 66.31 20.29 67.49 18.00 73.00 Z"/>
</g>
<g fill="None" fill-opacity="0.0" stroke="#175072" stroke-opacity="0.23" stroke-width="0.3"><path d="
M 891.00 21.00 
C 891.04 21.23 892.86 22.68 893.00 23.00
C 893.00 21.33 893.00 19.67 893.00 18.00
C 891.82 18.47 891.58 19.93 891.00 21.00 Z"/>
</g>
<g fill="None" fill-opacity="0.0" stroke="#195276" stroke-opacity="0.23" stroke-width="0.3"><path d="
M 895.00 24.00 
C 895.11 22.46 895.25 20.70 895.00 19.00
C 895.08 20.66 894.94 22.34 895.00 24.00 Z"/>
</g>
<g fill="None" fill-opacity="0.0" stroke="#1A5477" stroke-opacity="0.20" stroke-width="0.3"><path d="
M 876.00 32.00 
C 874.27 33.43 875.73 34.22 877.89 33.90 C 880.05 33.57 877.94 31.36 878.00 31.00
C 877.58 32.01 877.22 34.18 876.00 32.00 Z"/>
</g>
<g fill="None" fill-opacity="0.0" stroke="#165075" stroke-opacity="0.94" stroke-width="0.3"><path d="
M 378.00 41.00 
C 372.75 41.79 367.52 42.33 362.00 42.00
C 362.40 55.57 361.47 73.90 362.00 87.00 C 362.53 100.10 358.86 117.12 367.77 126.23 C 376.68 135.34 400.03 133.35 395.00 118.00
C 374.28 122.81 377.74 102.45 378.00 88.00 C 378.26 73.55 377.81 55.75 378.00 41.00 Z"/>
</g>
<g fill="None" fill-opacity="0.0" stroke="#165076" stroke-opacity="0.95" stroke-width="0.3"><path d="
M 546.00 41.00 
C 540.75 41.79 535.52 42.33 530.00 42.00
C 530.00 71.33 530.00 100.67 530.00 130.00
C 535.33 130.00 540.67 130.00 546.00 130.00
C 546.00 121.67 546.00 113.33 546.00 105.00
C 548.68 105.53 549.34 101.52 552.00 102.00
C 555.70 110.63 562.05 112.97 566.23 121.77 C 570.41 130.57 581.18 131.60 591.00 130.00
C 583.77 116.51 571.24 105.50 564.00 92.00
C 572.41 83.80 582.55 75.56 589.00 66.00
C 579.38 64.39 568.24 65.77 562.75 73.75 C 557.26 81.73 551.07 82.65 547.00 91.00
C 544.67 75.32 546.67 57.50 546.00 41.00 Z"/>
</g>
<g fill="None" fill-opacity="0.0" stroke="#165075" stroke-opacity="0.95" stroke-width="0.3"><path d="
M 669.00 41.00 
C 663.88 42.29 658.44 42.04 653.00 42.00
C 653.00 71.33 653.00 100.67 653.00 130.00
C 658.33 130.00 663.67 130.00 669.00 130.00
C 669.97 116.92 667.24 98.25 670.08 86.08 C 672.93 73.91 694.29 72.43 695.00 86.00 C 695.71 99.57 694.47 116.16 695.00 130.00
C 700.33 130.00 705.67 130.00 711.00 130.00
C 709.13 112.76 714.66 90.39 708.31 74.70 C 701.95 59.00 679.22 62.46 669.00 71.00
C 669.00 61.00 669.00 51.00 669.00 41.00 Z"/>
</g>
<g fill="None" fill-opacity="0.0" stroke="#155075" stroke-opacity="0.95" stroke-width="0.3"><path d="
M 807.00 44.00 
C 801.67 44.00 796.33 44.00 791.00 44.00
C 791.00 48.33 791.00 52.67 791.00 57.00
C 796.33 57.00 801.67 57.00 807.00 57.00
C 807.00 52.67 807.00 48.33 807.00 44.00 Z"/>
</g>
<g fill="None" fill-opacity="0.0" stroke="#165076" stroke-opacity="0.94" stroke-width="0.3"><path d="
M 336.00 85.00 
C 348.01 78.91 352.58 56.64 338.07 48.93 C 323.57 41.22 302.37 46.68 286.00 45.00
C 286.00 73.33 286.00 101.67 286.00 130.00
C 303.60 128.98 327.11 133.57 341.75 123.75 C 356.39 113.93 352.00 88.16 336.00 85.00
M 303.00 79.00 
C 303.00 71.67 303.00 64.33 303.00 57.00
C 312.16 57.36 330.89 54.27 330.98 68.02 C 331.06 81.78 312.23 79.01 303.00 79.00
M 303.00 118.00 
C 303.00 109.00 303.00 100.00 303.00 91.00
C 313.87 91.00 333.03 88.75 333.00 104.00 C 332.97 119.26 314.14 118.17 303.00 118.00 Z"/>
</g>
<g fill="None" fill-opacity="0.0" stroke="#000000" stroke-opacity="0.00" stroke-width="0.3"><path d="
M 303.00 79.00 
C 312.23 79.01 331.06 81.78 330.98 68.02 C 330.89 54.27 312.16 57.36 303.00 57.00
C 303.00 64.33 303.00 71.67 303.00 79.00 Z"/>
</g>
<g fill="None" fill-opacity="0.0" stroke="#165076" stroke-opacity="0.93" stroke-width="0.3"><path d="
M 436.00 64.00 
C 407.13 59.88 393.87 85.79 400.02 109.98 C 406.18 134.16 439.92 138.05 454.08 120.08 C 468.24 102.11 459.67 67.38 436.00 64.00
M 430.00 76.00 
C 450.65 76.65 448.91 120.37 428.31 118.65 C 407.70 116.93 409.93 75.36 430.00 76.00 Z"/>
</g>
<g fill="None" fill-opacity="0.0" stroke="#165076" stroke-opacity="0.93" stroke-width="0.3"><path d="
M 519.00 68.00 
C 493.83 55.44 468.90 70.63 469.00 98.00 C 469.10 125.37 494.95 140.01 519.00 126.00
C 517.74 122.14 518.72 117.72 517.00 114.00
C 501.19 123.76 485.16 116.31 485.00 98.00 C 484.84 79.69 499.42 70.93 515.00 81.00
C 517.04 77.32 518.82 72.55 519.00 68.00 Z"/>
</g>
<g fill="None" fill-opacity="0.0" stroke="#165076" stroke-opacity="0.93" stroke-width="0.3"><path d="
M 643.00 69.00 
C 629.14 60.14 606.21 62.63 596.92 76.92 C 587.64 91.21 590.79 114.61 602.92 125.08 C 615.05 135.55 647.53 134.95 641.00 114.00
C 625.41 123.20 608.21 116.79 608.00 98.00 C 607.79 79.21 623.20 71.29 639.00 81.00
C 640.09 76.90 641.40 72.93 643.00 69.00 Z"/>
</g>
<g fill="None" fill-opacity="0.0" stroke="#165076" stroke-opacity="0.92" stroke-width="0.3"><path d="
M 777.00 130.00 
C 777.04 120.50 776.95 108.22 777.00 99.00 C 777.05 89.78 776.95 79.42 772.77 72.23 C 768.59 65.04 757.08 62.88 750.00 64.00 C 742.92 65.12 728.33 62.77 727.68 71.32 C 727.03 79.87 738.47 81.68 746.00 76.00 C 753.53 70.32 766.69 87.50 757.00 90.00 C 747.31 92.50 739.29 90.19 731.08 95.08 C 722.87 99.97 720.70 107.91 722.22 116.78 C 723.75 125.64 730.87 129.84 739.00 131.00 C 747.13 132.16 756.25 128.79 762.00 123.00
C 762.92 125.27 764.07 127.48 764.00 130.00
C 768.33 130.00 772.67 130.00 777.00 130.00
M 760.00 100.00 
C 765.81 110.37 749.33 127.07 739.77 117.23 C 730.21 107.39 751.25 95.97 760.00 100.00 Z"/>
</g>
<g fill="None" fill-opacity="0.0" stroke="#165076" stroke-opacity="0.95" stroke-width="0.3"><path d="
M 880.00 130.00 
C 877.70 112.50 884.44 88.99 876.75 73.25 C 869.07 57.50 845.60 63.66 836.00 73.00
C 838.16 63.64 827.81 66.20 822.00 66.00
C 822.00 87.33 822.00 108.67 822.00 130.00
C 827.33 130.00 832.67 130.00 838.00 130.00
C 839.09 116.76 836.10 98.40 839.03 86.03 C 841.96 73.66 863.15 72.76 863.67 86.33 C 864.19 99.90 863.97 116.10 864.00 130.00
C 869.33 130.00 874.67 130.00 880.00 130.00 Z"/>
</g>
<g fill="None" fill-opacity="0.0" stroke="#155075" stroke-opacity="0.95" stroke-width="0.3"><path d="
M 807.00 66.00 
C 801.67 66.00 796.33 66.00 791.00 66.00
C 791.00 87.33 791.00 108.67 791.00 130.00
C 796.33 130.00 801.67 130.00 807.00 130.00
C 807.00 108.67 807.00 87.33 807.00 66.00 Z"/>
</g>
<g fill="None" fill-opacity="0.0" stroke="#4675B9" stroke-opacity="1.00" stroke-width="0.3"><path d="
M 134.00 272.00 
C 138.00 269.50 133.93 258.24 135.00 253.00 C 136.07 247.76 134.54 238.07 135.00 232.00 C 135.46 225.93 134.90 218.47 135.00 212.00 C 135.10 205.53 135.15 197.58 135.00 191.00 C 134.85 184.42 135.55 177.53 135.00 171.00 C 134.45 164.47 136.24 156.28 135.00 150.00 C 133.76 143.72 137.75 134.56 135.00 129.00
C 127.15 129.00 118.94 120.19 111.23 117.77 C 103.52 115.35 95.45 109.40 87.69 106.31 C 79.94 103.21 72.58 98.36 64.69 95.31 C 56.81 92.25 49.12 86.96 41.23 83.77 C 33.34 80.58 26.01 75.83 18.00 73.00
C 18.00 121.00 18.00 169.00 18.00 217.00
C 31.14 222.01 43.81 229.78 56.77 235.23 C 69.74 240.68 82.11 249.15 95.25 253.75 C 108.40 258.34 120.28 270.08 134.00 272.00 Z"/>
</g>
<g fill="None" fill-opacity="0.0" stroke="#2261AC" stroke-opacity="1.00" stroke-width="0.3"><path d="
M 135.00 129.00 
C 137.75 134.56 133.76 143.72 135.00 150.00 C 136.24 156.28 134.45 164.47 135.00 171.00 C 135.55 177.53 134.85 184.42 135.00 191.00 C 135.15 197.58 135.10 205.53 135.00 212.00 C 134.90 218.47 135.46 225.93 135.00 232.00 C 134.54 238.07 136.07 247.76 135.00 253.00 C 133.93 258.24 138.00 269.50 134.00 272.00
C 142.77 273.23 154.11 262.76 163.31 259.31 C 172.50 255.85 183.35 250.08 192.31 245.31 C 201.26 240.53 212.91 237.04 221.31 231.31 C 229.70 225.57 243.26 224.43 250.00 217.00
C 255.73 207.94 249.01 192.82 251.00 182.00 C 252.99 171.18 249.96 157.49 251.00 146.00 C 252.04 134.51 250.20 121.83 251.00 110.00 C 251.80 98.17 249.92 84.91 251.00 73.00
C 243.80 77.54 234.57 79.83 227.23 84.23 C 219.89 88.63 211.80 91.51 204.23 95.23 C 196.66 98.95 188.53 104.14 180.69 106.69 C 172.86 109.25 165.82 116.45 158.08 118.08 C 150.33 119.70 142.54 129.00 135.00 129.00 Z"/>
</g>
<g fill="None" fill-opacity="0.0" stroke="#2161AD" stroke-opacity="0.75" stroke-width="0.3"><path d="
M 250.00 217.00 
C 256.34 210.01 250.50 192.70 252.00 182.00 C 253.50 171.30 251.54 157.47 252.00 146.00 C 252.46 134.53 252.20 120.74 252.00 109.00 C 251.80 97.26 253.06 84.72 252.00 73.00
C 252.00 73.00 251.36 72.77 251.00 73.00
C 249.92 84.91 251.80 98.17 251.00 110.00 C 250.20 121.83 252.04 134.51 251.00 146.00 C 249.96 157.49 252.99 171.18 251.00 182.00 C 249.01 192.82 255.73 207.94 250.00 217.00 Z"/>
</g>
<g fill="None" fill-opacity="0.0" stroke="#000000" stroke-opacity="0.00" stroke-width="0.3"><path d="
M 430.00 76.00 
C 409.93 75.36 407.70 116.93 428.31 118.65 C 448.91 120.37 450.65 76.65 430.00 76.00 Z"/>
</g>
<g fill="None" fill-opacity="0.0" stroke="#000000" stroke-opacity="0.00" stroke-width="0.3"><path d="
M 303.00 118.00 
C 314.14 118.17 332.97 119.26 333.00 104.00 C 333.03 88.75 313.87 91.00 303.00 91.00
C 303.00 100.00 303.00 109.00 303.00 118.00 Z"/>
</g>
<g fill="None" fill-opacity="0.0" stroke="#000000" stroke-opacity="0.00" stroke-width="0.3"><path d="
M 760.00 100.00 
C 751.25 95.97 730.21 107.39 739.77 117.23 C 749.33 127.07 765.81 110.37 760.00 100.00 Z"/>
</g>
<g fill="None" fill-opacity="0.0" stroke="#165075" stroke-opacity="0.95" stroke-width="0.3"><path d="
M 674.00 155.00 
C 668.40 154.34 663.58 156.66 658.00 156.00
C 656.58 176.57 659.89 197.46 658.00 218.00 C 656.11 238.54 672.65 249.38 692.00 243.00
C 691.93 238.95 692.44 234.69 691.00 231.00
C 671.65 236.94 673.53 216.07 674.00 202.00 C 674.47 187.93 673.65 169.47 674.00 155.00 Z"/>
</g>
<g fill="None" fill-opacity="0.0" stroke="#165076" stroke-opacity="0.93" stroke-width="0.3"><path d="
M 345.00 177.00 
C 351.50 168.01 349.20 160.83 339.07 158.93 C 328.94 157.02 319.06 155.93 310.07 159.07 C 301.09 162.22 296.71 165.59 290.77 172.77 C 284.83 179.95 283.68 188.82 283.00 198.00 C 282.32 207.18 284.09 218.55 288.75 226.25 C 293.40 233.96 297.80 238.03 306.31 241.69 C 314.81 245.35 325.26 245.04 334.93 243.93 C 344.60 242.81 351.85 236.39 346.00 226.00
C 323.66 239.01 299.91 226.59 300.00 201.00 C 300.09 175.41 323.37 162.19 345.00 177.00 Z"/>
</g>
<g fill="None" fill-opacity="0.0" stroke="#165075" stroke-opacity="0.90" stroke-width="0.3"><path d="
M 643.00 157.00 
C 637.67 157.00 632.33 157.00 627.00 157.00
C 627.00 161.67 627.00 166.33 627.00 171.00
C 632.33 171.00 637.67 171.00 643.00 171.00
C 643.00 166.33 643.00 161.67 643.00 157.00 Z"/>
</g>
<g fill="None" fill-opacity="0.0" stroke="#165076" stroke-opacity="0.94" stroke-width="0.3"><path d="
M 396.00 178.00 
C 366.52 173.21 351.82 198.45 358.22 223.78 C 364.63 249.10 398.04 250.52 412.08 234.08 C 426.12 217.65 418.95 181.73 396.00 178.00
M 391.00 190.00 
C 409.91 193.55 405.47 236.17 385.00 232.00 C 364.53 227.83 369.58 185.98 391.00 190.00 Z"/>
</g>
<g fill="None" fill-opacity="0.0" stroke="#165075" stroke-opacity="0.95" stroke-width="0.3"><path d="
M 555.00 243.00 
C 552.73 225.55 559.41 202.97 551.77 187.23 C 544.13 171.49 520.99 177.74 511.00 186.00
C 512.68 176.80 503.05 179.10 497.00 179.00
C 497.00 200.33 497.00 221.67 497.00 243.00
C 502.33 243.00 507.67 243.00 513.00 243.00
C 513.49 229.98 511.89 212.22 514.03 200.03 C 516.16 187.83 537.41 185.91 538.67 199.33 C 539.93 212.75 538.41 229.20 539.00 243.00
C 544.33 243.00 549.67 243.00 555.00 243.00 Z"/>
</g>
<g fill="None" fill-opacity="0.0" stroke="#165076" stroke-opacity="0.93" stroke-width="0.3"><path d="
M 617.00 182.00 
C 602.61 174.52 578.96 176.34 570.31 191.31 C 561.65 206.27 565.11 229.14 577.77 239.23 C 590.43 249.32 621.91 248.16 615.00 227.00
C 609.08 229.82 600.17 233.89 593.23 231.77 C 586.29 229.65 583.38 222.89 582.33 216.67 C 581.28 210.45 581.71 200.11 586.25 195.25 C 590.78 190.39 598.68 187.59 605.32 191.68 C 611.97 195.77 616.74 189.99 617.00 182.00 Z"/>
</g>
<g fill="None" fill-opacity="0.0" stroke="#165075" stroke-opacity="0.92" stroke-width="0.3"><path d="
M 445.00 179.00 
C 439.33 179.00 433.67 179.00 428.00 179.00
C 430.18 195.23 422.80 223.63 433.75 236.25 C 444.70 248.86 468.57 249.00 479.23 236.23 C 489.89 223.46 481.09 194.92 484.00 179.00
C 478.67 179.00 473.33 179.00 468.00 179.00
C 468.09 192.83 467.89 208.32 467.98 221.98 C 468.06 235.64 444.51 235.86 445.00 222.00 C 445.49 208.14 444.63 192.98 445.00 179.00 Z"/>
</g>
<g fill="None" fill-opacity="0.0" stroke="#165075" stroke-opacity="0.94" stroke-width="0.3"><path d="
M 643.00 179.00 
C 637.67 179.00 632.33 179.00 627.00 179.00
C 627.00 200.33 627.00 221.67 627.00 243.00
C 632.33 243.00 637.67 243.00 643.00 243.00
C 643.00 221.67 643.00 200.33 643.00 179.00 Z"/>
</g>
<g fill="None" fill-opacity="0.0" stroke="#000000" stroke-opacity="0.00" stroke-width="0.3"><path d="
M 391.00 190.00 
C 369.58 185.98 364.53 227.83 385.00 232.00 C 405.47 236.17 409.91 193.55 391.00 190.00 Z"/>
</g>
<g fill="#000000" fill-opacity="0.00" stroke="None">
<path d="
M 0.00 289.00 
L 903.00 289.00
L 903.00 0.00
L 0.00 0.00
L 0.00 289.00
M 874.00 15.00 
C 864.47 14.63 869.00 26.28 868.00 33.00
C 862.24 31.66 865.30 19.92 866.00 15.00
C 863.68 14.21 860.33 16.20 859.00 15.00
C 861.85 11.86 872.03 11.63 874.00 15.00
M 895.00 19.00 
C 895.25 20.70 895.11 22.46 895.00 24.00
C 895.12 27.49 895.07 30.48 896.00 34.00
C 891.03 34.23 895.11 26.59 893.00 23.00
C 892.86 22.68 891.04 21.23 891.00 21.00
C 888.74 25.17 887.93 30.06 887.00 34.00
C 882.62 31.84 881.36 24.79 881.00 19.00
C 876.31 20.67 879.19 27.02 878.00 31.00
C 877.94 31.36 880.05 33.57 877.89 33.90 C 875.73 34.22 874.27 33.43 876.00 32.00
C 873.46 27.46 878.48 18.12 877.00 13.00
C 883.04 15.21 883.74 21.57 884.00 27.00
C 891.66 25.27 886.28 14.80 895.00 13.00
C 892.98 14.89 895.60 16.75 895.00 19.00
M 252.00 73.00 
C 253.06 84.72 251.80 97.26 252.00 109.00 C 252.20 120.74 252.46 134.53 252.00 146.00 C 251.54 157.47 253.50 171.30 252.00 182.00 C 250.50 192.70 256.34 210.01 250.00 217.00
C 243.26 224.43 229.70 225.57 221.31 231.31 C 212.91 237.04 201.26 240.53 192.31 245.31 C 183.35 250.08 172.50 255.85 163.31 259.31 C 154.11 262.76 142.77 273.23 134.00 272.00
C 120.28 270.08 108.40 258.34 95.25 253.75 C 82.11 249.15 69.74 240.68 56.77 235.23 C 43.81 229.78 31.14 222.01 18.00 217.00
C 18.00 169.00 18.00 121.00 18.00 73.00
C 20.29 67.49 32.99 66.31 38.23 62.23 C 43.47 58.15 53.41 56.55 59.68 52.68 C 65.95 48.81 74.48 45.99 81.23 42.23 C 87.97 38.47 95.36 36.43 102.23 32.23 C 109.10 28.03 117.15 26.93 124.08 22.08 C 131.00 17.22 138.30 16.81 145.23 21.77 C 152.15 26.73 160.21 27.48 167.08 31.92 C 173.94 36.37 181.23 37.85 188.08 41.92 C 194.92 46.00 202.98 48.24 209.70 52.31 C 216.41 56.37 224.35 57.89 230.69 62.31 C 237.04 66.72 246.95 67.22 252.00 73.00
M 378.00 41.00 
C 377.81 55.75 378.26 73.55 378.00 88.00 C 377.74 102.45 374.28 122.81 395.00 118.00
C 400.03 133.35 376.68 135.34 367.77 126.23 C 358.86 117.12 362.53 100.10 362.00 87.00 C 361.47 73.90 362.40 55.57 362.00 42.00
C 367.52 42.33 372.75 41.79 378.00 41.00
M 546.00 41.00 
C 546.67 57.50 544.67 75.32 547.00 91.00
C 551.07 82.65 557.26 81.73 562.75 73.75 C 568.24 65.77 579.38 64.39 589.00 66.00
C 582.55 75.56 572.41 83.80 564.00 92.00
C 571.24 105.50 583.77 116.51 591.00 130.00
C 581.18 131.60 570.41 130.57 566.23 121.77 C 562.05 112.97 555.70 110.63 552.00 102.00
C 549.34 101.52 548.68 105.53 546.00 105.00
C 546.00 113.33 546.00 121.67 546.00 130.00
C 540.67 130.00 535.33 130.00 530.00 130.00
C 530.00 100.67 530.00 71.33 530.00 42.00
C 535.52 42.33 540.75 41.79 546.00 41.00
M 669.00 41.00 
C 669.00 51.00 669.00 61.00 669.00 71.00
C 679.22 62.46 701.95 59.00 708.31 74.70 C 714.66 90.39 709.13 112.76 711.00 130.00
C 705.67 130.00 700.33 130.00 695.00 130.00
C 694.47 116.16 695.71 99.57 695.00 86.00 C 694.29 72.43 672.93 73.91 670.08 86.08 C 667.24 98.25 669.97 116.92 669.00 130.00
C 663.67 130.00 658.33 130.00 653.00 130.00
C 653.00 100.67 653.00 71.33 653.00 42.00
C 658.44 42.04 663.88 42.29 669.00 41.00
M 807.00 44.00 
C 807.00 48.33 807.00 52.67 807.00 57.00
C 801.67 57.00 796.33 57.00 791.00 57.00
C 791.00 52.67 791.00 48.33 791.00 44.00
C 796.33 44.00 801.67 44.00 807.00 44.00
M 336.00 85.00 
C 352.00 88.16 356.39 113.93 341.75 123.75 C 327.11 133.57 303.60 128.98 286.00 130.00
C 286.00 101.67 286.00 73.33 286.00 45.00
C 302.37 46.68 323.57 41.22 338.07 48.93 C 352.58 56.64 348.01 78.91 336.00 85.00
M 436.00 64.00 
C 459.67 67.38 468.24 102.11 454.08 120.08 C 439.92 138.05 406.18 134.16 400.02 109.98 C 393.87 85.79 407.13 59.88 436.00 64.00
M 519.00 68.00 
C 518.82 72.55 517.04 77.32 515.00 81.00
C 499.42 70.93 484.84 79.69 485.00 98.00 C 485.16 116.31 501.19 123.76 517.00 114.00
C 518.72 117.72 517.74 122.14 519.00 126.00
C 494.95 140.01 469.10 125.37 469.00 98.00 C 468.90 70.63 493.83 55.44 519.00 68.00
M 643.00 69.00 
C 641.40 72.93 640.09 76.90 639.00 81.00
C 623.20 71.29 607.79 79.21 608.00 98.00 C 608.21 116.79 625.41 123.20 641.00 114.00
C 647.53 134.95 615.05 135.55 602.92 125.08 C 590.79 114.61 587.64 91.21 596.92 76.92 C 606.21 62.63 629.14 60.14 643.00 69.00
M 777.00 130.00 
C 772.67 130.00 768.33 130.00 764.00 130.00
C 764.07 127.48 762.92 125.27 762.00 123.00
C 756.25 128.79 747.13 132.16 739.00 131.00 C 730.87 129.84 723.75 125.64 722.22 116.78 C 720.70 107.91 722.87 99.97 731.08 95.08 C 739.29 90.19 747.31 92.50 757.00 90.00 C 766.69 87.50 753.53 70.32 746.00 76.00 C 738.47 81.68 727.03 79.87 727.68 71.32 C 728.33 62.77 742.92 65.12 750.00 64.00 C 757.08 62.88 768.59 65.04 772.77 72.23 C 776.95 79.42 777.05 89.78 777.00 99.00 C 776.95 108.22 777.04 120.50 777.00 130.00
M 880.00 130.00 
C 874.67 130.00 869.33 130.00 864.00 130.00
C 863.97 116.10 864.19 99.90 863.67 86.33 C 863.15 72.76 841.96 73.66 839.03 86.03 C 836.10 98.40 839.09 116.76 838.00 130.00
C 832.67 130.00 827.33 130.00 822.00 130.00
C 822.00 108.67 822.00 87.33 822.00 66.00
C 827.81 66.20 838.16 63.64 836.00 73.00
C 845.60 63.66 869.07 57.50 876.75 73.25 C 884.44 88.99 877.70 112.50 880.00 130.00
M 807.00 66.00 
C 807.00 87.33 807.00 108.67 807.00 130.00
C 801.67 130.00 796.33 130.00 791.00 130.00
C 791.00 108.67 791.00 87.33 791.00 66.00
C 796.33 66.00 801.67 66.00 807.00 66.00
M 674.00 155.00 
C 673.65 169.47 674.47 187.93 674.00 202.00 C 673.53 216.07 671.65 236.94 691.00 231.00
C 692.44 234.69 691.93 238.95 692.00 243.00
C 672.65 249.38 656.11 238.54 658.00 218.00 C 659.89 197.46 656.58 176.57 658.00 156.00
C 663.58 156.66 668.40 154.34 674.00 155.00
M 345.00 177.00 
C 323.37 162.19 300.09 175.41 300.00 201.00 C 299.91 226.59 323.66 239.01 346.00 226.00
C 351.85 236.39 344.60 242.81 334.93 243.93 C 325.26 245.04 314.81 245.35 306.31 241.69 C 297.80 238.03 293.40 233.96 288.75 226.25 C 284.09 218.55 282.32 207.18 283.00 198.00 C 283.68 188.82 284.83 179.95 290.77 172.77 C 296.71 165.59 301.09 162.22 310.07 159.07 C 319.06 155.93 328.94 157.02 339.07 158.93 C 349.20 160.83 351.50 168.01 345.00 177.00
M 643.00 157.00 
C 643.00 161.67 643.00 166.33 643.00 171.00
C 637.67 171.00 632.33 171.00 627.00 171.00
C 627.00 166.33 627.00 161.67 627.00 157.00
C 632.33 157.00 637.67 157.00 643.00 157.00
M 396.00 178.00 
C 418.95 181.73 426.12 217.65 412.08 234.08 C 398.04 250.52 364.63 249.10 358.22 223.78 C 351.82 198.45 366.52 173.21 396.00 178.00
M 555.00 243.00 
C 549.67 243.00 544.33 243.00 539.00 243.00
C 538.41 229.20 539.93 212.75 538.67 199.33 C 537.41 185.91 516.16 187.83 514.03 200.03 C 511.89 212.22 513.49 229.98 513.00 243.00
C 507.67 243.00 502.33 243.00 497.00 243.00
C 497.00 221.67 497.00 200.33 497.00 179.00
C 503.05 179.10 512.68 176.80 511.00 186.00
C 520.99 177.74 544.13 171.49 551.77 187.23 C 559.41 202.97 552.73 225.55 555.00 243.00
M 617.00 182.00 
C 616.74 189.99 611.97 195.77 605.32 191.68 C 598.68 187.59 590.78 190.39 586.25 195.25 C 581.71 200.11 581.28 210.45 582.33 216.67 C 583.38 222.89 586.29 229.65 593.23 231.77 C 600.17 233.89 609.08 229.82 615.00 227.00
C 621.91 248.16 590.43 249.32 577.77 239.23 C 565.11 229.14 561.65 206.27 570.31 191.31 C 578.96 176.34 602.61 174.52 617.00 182.00
M 445.00 179.00 
C 444.63 192.98 445.49 208.14 445.00 222.00 C 444.51 235.86 468.06 235.64 467.98 221.98 C 467.89 208.32 468.09 192.83 468.00 179.00
C 473.33 179.00 478.67 179.00 484.00 179.00
C 481.09 194.92 489.89 223.46 479.23 236.23 C 468.57 249.00 444.70 248.86 433.75 236.25 C 422.80 223.63 430.18 195.23 428.00 179.00
C 433.67 179.00 439.33 179.00 445.00 179.00
M 643.00 179.00 
C 643.00 200.33 643.00 221.67 643.00 243.00
C 637.67 243.00 632.33 243.00 627.00 243.00
C 627.00 221.67 627.00 200.33 627.00 179.00
C 632.33 179.00 637.67 179.00 643.00 179.00 Z"/>
</g>
<g fill="#000000" fill-opacity="0.80" stroke="None">
<path d="
M 874.00 15.00 
C 872.03 11.63 861.85 11.86 859.00 15.00
C 860.33 16.20 863.68 14.21 866.00 15.00
C 865.30 19.92 862.24 31.66 868.00 33.00
C 869.00 26.28 864.47 14.63 874.00 15.00 Z"/>
</g>
<g fill="#000102" fill-opacity="0.80" stroke="None">
<path d="
M 876.00 32.00 
C 877.22 34.18 877.58 32.01 878.00 31.00
C 879.19 27.02 876.31 20.67 881.00 19.00
C 881.36 24.79 882.62 31.84 887.00 34.00
C 887.93 30.06 888.74 25.17 891.00 21.00
C 891.58 19.93 891.82 18.47 893.00 18.00
C 893.00 19.67 893.00 21.33 893.00 23.00
C 895.11 26.59 891.03 34.23 896.00 34.00
C 895.07 30.48 895.12 27.49 895.00 24.00
C 894.94 22.34 895.08 20.66 895.00 19.00
C 895.60 16.75 892.98 14.89 895.00 13.00
C 886.28 14.80 891.66 25.27 884.00 27.00
C 883.74 21.57 883.04 15.21 877.00 13.00
C 878.48 18.12 873.46 27.46 876.00 32.00 Z"/>
</g>
<g fill="#83BBE5" fill-opacity="1.00" stroke="None">
<path d="
M 18.00 73.00 
C 26.01 75.83 33.34 80.58 41.23 83.77 C 49.12 86.96 56.81 92.25 64.69 95.31 C 72.58 98.36 79.94 103.21 87.69 106.31 C 95.45 109.40 103.52 115.35 111.23 117.77 C 118.94 120.19 127.15 129.00 135.00 129.00
C 142.54 129.00 150.33 119.70 158.08 118.08 C 165.82 116.45 172.86 109.25 180.69 106.69 C 188.53 104.14 196.66 98.95 204.23 95.23 C 211.80 91.51 219.89 88.63 227.23 84.23 C 234.57 79.83 243.80 77.54 251.00 73.00
C 251.36 72.77 252.00 73.00 252.00 73.00
C 246.95 67.22 237.04 66.72 230.69 62.31 C 224.35 57.89 216.41 56.37 209.70 52.31 C 202.98 48.24 194.92 46.00 188.08 41.92 C 181.23 37.85 173.94 36.37 167.08 31.92 C 160.21 27.48 152.15 26.73 145.23 21.77 C 138.30 16.81 131.00 17.22 124.08 22.08 C 117.15 26.93 109.10 28.03 102.23 32.23 C 95.36 36.43 87.97 38.47 81.23 42.23 C 74.48 45.99 65.95 48.81 59.68 52.68 C 53.41 56.55 43.47 58.15 38.23 62.23 C 32.99 66.31 20.29 67.49 18.00 73.00 Z"/>
</g>
<g fill="#175072" fill-opacity="0.23" stroke="None">
<path d="
M 891.00 21.00 
C 891.04 21.23 892.86 22.68 893.00 23.00
C 893.00 21.33 893.00 19.67 893.00 18.00
C 891.82 18.47 891.58 19.93 891.00 21.00 Z"/>
</g>
<g fill="#195276" fill-opacity="0.23" stroke="None">
<path d="
M 895.00 24.00 
C 895.11 22.46 895.25 20.70 895.00 19.00
C 895.08 20.66 894.94 22.34 895.00 24.00 Z"/>
</g>
<g fill="#1A5477" fill-opacity="0.20" stroke="None">
<path d="
M 876.00 32.00 
C 874.27 33.43 875.73 34.22 877.89 33.90 C 880.05 33.57 877.94 31.36 878.00 31.00
C 877.58 32.01 877.22 34.18 876.00 32.00 Z"/>
</g>
<g fill="#165075" fill-opacity="0.94" stroke="None">
<path d="
M 378.00 41.00 
C 372.75 41.79 367.52 42.33 362.00 42.00
C 362.40 55.57 361.47 73.90 362.00 87.00 C 362.53 100.10 358.86 117.12 367.77 126.23 C 376.68 135.34 400.03 133.35 395.00 118.00
C 374.28 122.81 377.74 102.45 378.00 88.00 C 378.26 73.55 377.81 55.75 378.00 41.00 Z"/>
</g>
<g fill="#165076" fill-opacity="0.95" stroke="None">
<path d="
M 546.00 41.00 
C 540.75 41.79 535.52 42.33 530.00 42.00
C 530.00 71.33 530.00 100.67 530.00 130.00
C 535.33 130.00 540.67 130.00 546.00 130.00
C 546.00 121.67 546.00 113.33 546.00 105.00
C 548.68 105.53 549.34 101.52 552.00 102.00
C 555.70 110.63 562.05 112.97 566.23 121.77 C 570.41 130.57 581.18 131.60 591.00 130.00
C 583.77 116.51 571.24 105.50 564.00 92.00
C 572.41 83.80 582.55 75.56 589.00 66.00
C 579.38 64.39 568.24 65.77 562.75 73.75 C 557.26 81.73 551.07 82.65 547.00 91.00
C 544.67 75.32 546.67 57.50 546.00 41.00 Z"/>
</g>
<g fill="#165075" fill-opacity="0.95" stroke="None">
<path d="
M 669.00 41.00 
C 663.88 42.29 658.44 42.04 653.00 42.00
C 653.00 71.33 653.00 100.67 653.00 130.00
C 658.33 130.00 663.67 130.00 669.00 130.00
C 669.97 116.92 667.24 98.25 670.08 86.08 C 672.93 73.91 694.29 72.43 695.00 86.00 C 695.71 99.57 694.47 116.16 695.00 130.00
C 700.33 130.00 705.67 130.00 711.00 130.00
C 709.13 112.76 714.66 90.39 708.31 74.70 C 701.95 59.00 679.22 62.46 669.00 71.00
C 669.00 61.00 669.00 51.00 669.00 41.00 Z"/>
</g>
<g fill="#155075" fill-opacity="0.95" stroke="None">
<path d="
M 807.00 44.00 
C 801.67 44.00 796.33 44.00 791.00 44.00
C 791.00 48.33 791.00 52.67 791.00 57.00
C 796.33 57.00 801.67 57.00 807.00 57.00
C 807.00 52.67 807.00 48.33 807.00 44.00 Z"/>
</g>
<g fill="#165076" fill-opacity="0.94" stroke="None">
<path d="
M 336.00 85.00 
C 348.01 78.91 352.58 56.64 338.07 48.93 C 323.57 41.22 302.37 46.68 286.00 45.00
C 286.00 73.33 286.00 101.67 286.00 130.00
C 303.60 128.98 327.11 133.57 341.75 123.75 C 356.39 113.93 352.00 88.16 336.00 85.00
M 303.00 79.00 
C 303.00 71.67 303.00 64.33 303.00 57.00
C 312.16 57.36 330.89 54.27 330.98 68.02 C 331.06 81.78 312.23 79.01 303.00 79.00
M 303.00 118.00 
C 303.00 109.00 303.00 100.00 303.00 91.00
C 313.87 91.00 333.03 88.75 333.00 104.00 C 332.97 119.26 314.14 118.17 303.00 118.00 Z"/>
</g>
<g fill="#000000" fill-opacity="0.00" stroke="None">
<path d="
M 303.00 79.00 
C 312.23 79.01 331.06 81.78 330.98 68.02 C 330.89 54.27 312.16 57.36 303.00 57.00
C 303.00 64.33 303.00 71.67 303.00 79.00 Z"/>
</g>
<g fill="#165076" fill-opacity="0.93" stroke="None">
<path d="
M 436.00 64.00 
C 407.13 59.88 393.87 85.79 400.02 109.98 C 406.18 134.16 439.92 138.05 454.08 120.08 C 468.24 102.11 459.67 67.38 436.00 64.00
M 430.00 76.00 
C 450.65 76.65 448.91 120.37 428.31 118.65 C 407.70 116.93 409.93 75.36 430.00 76.00 Z"/>
</g>
<g fill="#165076" fill-opacity="0.93" stroke="None">
<path d="
M 519.00 68.00 
C 493.83 55.44 468.90 70.63 469.00 98.00 C 469.10 125.37 494.95 140.01 519.00 126.00
C 517.74 122.14 518.72 117.72 517.00 114.00
C 501.19 123.76 485.16 116.31 485.00 98.00 C 484.84 79.69 499.42 70.93 515.00 81.00
C 517.04 77.32 518.82 72.55 519.00 68.00 Z"/>
</g>
<g fill="#165076" fill-opacity="0.93" stroke="None">
<path d="
M 643.00 69.00 
C 629.14 60.14 606.21 62.63 596.92 76.92 C 587.64 91.21 590.79 114.61 602.92 125.08 C 615.05 135.55 647.53 134.95 641.00 114.00
C 625.41 123.20 608.21 116.79 608.00 98.00 C 607.79 79.21 623.20 71.29 639.00 81.00
C 640.09 76.90 641.40 72.93 643.00 69.00 Z"/>
</g>
<g fill="#165076" fill-opacity="0.92" stroke="None">
<path d="
M 777.00 130.00 
C 777.04 120.50 776.95 108.22 777.00 99.00 C 777.05 89.78 776.95 79.42 772.77 72.23 C 768.59 65.04 757.08 62.88 750.00 64.00 C 742.92 65.12 728.33 62.77 727.68 71.32 C 727.03 79.87 738.47 81.68 746.00 76.00 C 753.53 70.32 766.69 87.50 757.00 90.00 C 747.31 92.50 739.29 90.19 731.08 95.08 C 722.87 99.97 720.70 107.91 722.22 116.78 C 723.75 125.64 730.87 129.84 739.00 131.00 C 747.13 132.16 756.25 128.79 762.00 123.00
C 762.92 125.27 764.07 127.48 764.00 130.00
C 768.33 130.00 772.67 130.00 777.00 130.00
M 760.00 100.00 
C 765.81 110.37 749.33 127.07 739.77 117.23 C 730.21 107.39 751.25 95.97 760.00 100.00 Z"/>
</g>
<g fill="#165076" fill-opacity="0.95" stroke="None">
<path d="
M 880.00 130.00 
C 877.70 112.50 884.44 88.99 876.75 73.25 C 869.07 57.50 845.60 63.66 836.00 73.00
C 838.16 63.64 827.81 66.20 822.00 66.00
C 822.00 87.33 822.00 108.67 822.00 130.00
C 827.33 130.00 832.67 130.00 838.00 130.00
C 839.09 116.76 836.10 98.40 839.03 86.03 C 841.96 73.66 863.15 72.76 863.67 86.33 C 864.19 99.90 863.97 116.10 864.00 130.00
C 869.33 130.00 874.67 130.00 880.00 130.00 Z"/>
</g>
<g fill="#155075" fill-opacity="0.95" stroke="None">
<path d="
M 807.00 66.00 
C 801.67 66.00 796.33 66.00 791.00 66.00
C 791.00 87.33 791.00 108.67 791.00 130.00
C 796.33 130.00 801.67 130.00 807.00 130.00
C 807.00 108.67 807.00 87.33 807.00 66.00 Z"/>
</g>
<g fill="#4675B9" fill-opacity="1.00" stroke="None">
<path d="
M 134.00 272.00 
C 138.00 269.50 133.93 258.24 135.00 253.00 C 136.07 247.76 134.54 238.07 135.00 232.00 C 135.46 225.93 134.90 218.47 135.00 212.00 C 135.10 205.53 135.15 197.58 135.00 191.00 C 134.85 184.42 135.55 177.53 135.00 171.00 C 134.45 164.47 136.24 156.28 135.00 150.00 C 133.76 143.72 137.75 134.56 135.00 129.00
C 127.15 129.00 118.94 120.19 111.23 117.77 C 103.52 115.35 95.45 109.40 87.69 106.31 C 79.94 103.21 72.58 98.36 64.69 95.31 C 56.81 92.25 49.12 86.96 41.23 83.77 C 33.34 80.58 26.01 75.83 18.00 73.00
C 18.00 121.00 18.00 169.00 18.00 217.00
C 31.14 222.01 43.81 229.78 56.77 235.23 C 69.74 240.68 82.11 249.15 95.25 253.75 C 108.40 258.34 120.28 270.08 134.00 272.00 Z"/>
</g>
<g fill="#2261AC" fill-opacity="1.00" stroke="None">
<path d="
M 135.00 129.00 
C 137.75 134.56 133.76 143.72 135.00 150.00 C 136.24 156.28 134.45 164.47 135.00 171.00 C 135.55 177.53 134.85 184.42 135.00 191.00 C 135.15 197.58 135.10 205.53 135.00 212.00 C 134.90 218.47 135.46 225.93 135.00 232.00 C 134.54 238.07 136.07 247.76 135.00 253.00 C 133.93 258.24 138.00 269.50 134.00 272.00
C 142.77 273.23 154.11 262.76 163.31 259.31 C 172.50 255.85 183.35 250.08 192.31 245.31 C 201.26 240.53 212.91 237.04 221.31 231.31 C 229.70 225.57 243.26 224.43 250.00 217.00
C 255.73 207.94 249.01 192.82 251.00 182.00 C 252.99 171.18 249.96 157.49 251.00 146.00 C 252.04 134.51 250.20 121.83 251.00 110.00 C 251.80 98.17 249.92 84.91 251.00 73.00
C 243.80 77.54 234.57 79.83 227.23 84.23 C 219.89 88.63 211.80 91.51 204.23 95.23 C 196.66 98.95 188.53 104.14 180.69 106.69 C 172.86 109.25 165.82 116.45 158.08 118.08 C 150.33 119.70 142.54 129.00 135.00 129.00 Z"/>
</g>
<g fill="#2161AD" fill-opacity="0.75" stroke="None">
<path d="
M 250.00 217.00 
C 256.34 210.01 250.50 192.70 252.00 182.00 C 253.50 171.30 251.54 157.47 252.00 146.00 C 252.46 134.53 252.20 120.74 252.00 109.00 C 251.80 97.26 253.06 84.72 252.00 73.00
C 252.00 73.00 251.36 72.77 251.00 73.00
C 249.92 84.91 251.80 98.17 251.00 110.00 C 250.20 121.83 252.04 134.51 251.00 146.00 C 249.96 157.49 252.99 171.18 251.00 182.00 C 249.01 192.82 255.73 207.94 250.00 217.00 Z"/>
</g>
<g fill="#000000" fill-opacity="0.00" stroke="None">
<path d="
M 430.00 76.00 
C 409.93 75.36 407.70 116.93 428.31 118.65 C 448.91 120.37 450.65 76.65 430.00 76.00 Z"/>
</g>
<g fill="#000000" fill-opacity="0.00" stroke="None">
<path d="
M 303.00 118.00 
C 314.14 118.17 332.97 119.26 333.00 104.00 C 333.03 88.75 313.87 91.00 303.00 91.00
C 303.00 100.00 303.00 109.00 303.00 118.00 Z"/>
</g>
<g fill="#000000" fill-opacity="0.00" stroke="None">
<path d="
M 760.00 100.00 
C 751.25 95.97 730.21 107.39 739.77 117.23 C 749.33 127.07 765.81 110.37 760.00 100.00 Z"/>
</g>
<g fill="#165075" fill-opacity="0.95" stroke="None">
<path d="
M 674.00 155.00 
C 668.40 154.34 663.58 156.66 658.00 156.00
C 656.58 176.57 659.89 197.46 658.00 218.00 C 656.11 238.54 672.65 249.38 692.00 243.00
C 691.93 238.95 692.44 234.69 691.00 231.00
C 671.65 236.94 673.53 216.07 674.00 202.00 C 674.47 187.93 673.65 169.47 674.00 155.00 Z"/>
</g>
<g fill="#165076" fill-opacity="0.93" stroke="None">
<path d="
M 345.00 177.00 
C 351.50 168.01 349.20 160.83 339.07 158.93 C 328.94 157.02 319.06 155.93 310.07 159.07 C 301.09 162.22 296.71 165.59 290.77 172.77 C 284.83 179.95 283.68 188.82 283.00 198.00 C 282.32 207.18 284.09 218.55 288.75 226.25 C 293.40 233.96 297.80 238.03 306.31 241.69 C 314.81 245.35 325.26 245.04 334.93 243.93 C 344.60 242.81 351.85 236.39 346.00 226.00
C 323.66 239.01 299.91 226.59 300.00 201.00 C 300.09 175.41 323.37 162.19 345.00 177.00 Z"/>
</g>
<g fill="#165075" fill-opacity="0.90" stroke="None">
<path d="
M 643.00 157.00 
C 637.67 157.00 632.33 157.00 627.00 157.00
C 627.00 161.67 627.00 166.33 627.00 171.00
C 632.33 171.00 637.67 171.00 643.00 171.00
C 643.00 166.33 643.00 161.67 643.00 157.00 Z"/>
</g>
<g fill="#165076" fill-opacity="0.94" stroke="None">
<path d="
M 396.00 178.00 
C 366.52 173.21 351.82 198.45 358.22 223.78 C 364.63 249.10 398.04 250.52 412.08 234.08 C 426.12 217.65 418.95 181.73 396.00 178.00
M 391.00 190.00 
C 409.91 193.55 405.47 236.17 385.00 232.00 C 364.53 227.83 369.58 185.98 391.00 190.00 Z"/>
</g>
<g fill="#165075" fill-opacity="0.95" stroke="None">
<path d="
M 555.00 243.00 
C 552.73 225.55 559.41 202.97 551.77 187.23 C 544.13 171.49 520.99 177.74 511.00 186.00
C 512.68 176.80 503.05 179.10 497.00 179.00
C 497.00 200.33 497.00 221.67 497.00 243.00
C 502.33 243.00 507.67 243.00 513.00 243.00
C 513.49 229.98 511.89 212.22 514.03 200.03 C 516.16 187.83 537.41 185.91 538.67 199.33 C 539.93 212.75 538.41 229.20 539.00 243.00
C 544.33 243.00 549.67 243.00 555.00 243.00 Z"/>
</g>
<g fill="#165076" fill-opacity="0.93" stroke="None">
<path d="
M 617.00 182.00 
C 602.61 174.52 578.96 176.34 570.31 191.31 C 561.65 206.27 565.11 229.14 577.77 239.23 C 590.43 249.32 621.91 248.16 615.00 227.00
C 609.08 229.82 600.17 233.89 593.23 231.77 C 586.29 229.65 583.38 222.89 582.33 216.67 C 581.28 210.45 581.71 200.11 586.25 195.25 C 590.78 190.39 598.68 187.59 605.32 191.68 C 611.97 195.77 616.74 189.99 617.00 182.00 Z"/>
</g>
<g fill="#165075" fill-opacity="0.92" stroke="None">
<path d="
M 445.00 179.00 
C 439.33 179.00 433.67 179.00 428.00 179.00
C 430.18 195.23 422.80 223.63 433.75 236.25 C 444.70 248.86 468.57 249.00 479.23 236.23 C 489.89 223.46 481.09 194.92 484.00 179.00
C 478.67 179.00 473.33 179.00 468.00 179.00
C 468.09 192.83 467.89 208.32 467.98 221.98 C 468.06 235.64 444.51 235.86 445.00 222.00 C 445.49 208.14 444.63 192.98 445.00 179.00 Z"/>
</g>
<g fill="#165075" fill-opacity="0.94" stroke="None">
<path d="
M 643.00 179.00 
C 637.67 179.00 632.33 179.00 627.00 179.00
C 627.00 200.33 627.00 221.67 627.00 243.00
C 632.33 243.00 637.67 243.00 643.00 243.00
C 643.00 221.67 643.00 200.33 643.00 179.00 Z"/>
</g>
<g fill="#000000" fill-opacity="0.00" stroke="None">
<path d="
M 391.00 190.00 
C 369.58 185.98 364.53 227.83 385.00 232.00 C 405.47 236.17 409.91 193.55 391.00 190.00 Z"/>
</g>
</svg>