<svg width="186" height="52" viewBox="0 0 186 52" fill="none" xmlns="http://www.w3.org/2000/svg">
<g clip-path="url(#clip0_360_2477)">
<path fill-rule="evenodd" clip-rule="evenodd" d="M15.5721 0.58288C17.5186 0.364308 19.5372 0.510022 21.4116 1.23859C21.9884 1.45717 22.5651 1.74859 23.0698 2.18574C24.2953 3.20574 24.3674 4.66288 23.214 5.82859C22.0605 6.99431 20.5465 7.50431 19.0326 7.79574C16.5814 8.30574 14.2744 8.08716 12.1116 6.70288C11.3907 6.26574 10.814 5.75574 10.5977 4.88145C10.3093 3.64288 10.886 2.76859 11.7512 2.04002C12.8326 1.09288 14.1302 0.728594 15.5721 0.58288ZM9.66048 12.6772C8.14653 13.5514 7.35351 14.9357 7.4256 17.0486C7.4256 17.4129 7.56979 18.1414 7.78607 18.87C8.57909 20.91 10.0209 22.44 11.8233 23.6057C13.2651 24.5529 14.9233 25.1357 16.6535 24.6986C19.7535 23.97 21.4116 21.8572 22.1326 18.87C22.1806 18.6514 22.2207 18.4329 22.2607 18.2143C22.3408 17.7772 22.4209 17.34 22.5651 16.9029C23.5023 13.9157 25.3768 11.8757 28.4768 11.3657C30.207 11.0743 31.9372 11.3657 33.6675 11.8757C34.1 11.9972 34.5326 12.1348 34.9651 12.2724C35.8302 12.5476 36.6954 12.8229 37.5605 12.9686C38.4977 13.1872 39.2907 12.8229 39.9396 12.24C40.6605 11.5843 40.7326 10.6372 40.3 9.61716C39.6512 8.08716 38.4256 6.99431 37.2 5.97431C35.1814 4.37145 32.9465 3.13288 30.4233 2.69573C28.693 2.33145 27.2512 2.76859 27.1791 5.10002C27.107 6.12002 26.9628 7.06716 26.2419 7.86859C24.7279 9.54431 22.8535 10.4914 20.6907 10.9286C19.4508 11.1606 18.1816 11.1858 16.9018 11.2111C16.1725 11.2255 15.4397 11.24 14.707 11.2929C12.9768 11.3657 11.2465 11.6572 9.66048 12.6772ZM49.3837 34.0244C49.9605 32.8587 50.1767 31.6201 50.1046 30.8187C50.1046 27.9772 49.5279 25.7915 48.3744 23.8972C47.6535 22.7315 46.6442 21.8572 45.4186 21.2744C44.2651 20.7644 43.4 21.0558 42.7512 22.1487C42.5349 22.5129 42.3907 22.9501 42.2465 23.3872L42.2465 23.3872C42.2088 23.5269 42.1711 23.6689 42.133 23.8122L42.1328 23.8131C41.9525 24.4919 41.7636 25.2029 41.5256 25.8644C40.3721 29.143 37.7046 31.0372 34.2442 31.0372C33.0855 31.0372 32.03 30.7766 30.9904 30.5199L30.9903 30.5198L30.9902 30.5198L30.9901 30.5198L30.99 30.5198C30.8008 30.473 30.612 30.4264 30.4233 30.3815C26.386 29.4344 22.6372 32.4215 22.9977 36.5015C23.286 39.9258 25.0163 42.403 28.1884 43.7144C31.0721 44.8801 33.8837 43.933 35.0372 40.7272C35.3977 39.6344 35.7581 38.4687 36.0465 37.303C36.6953 34.6072 38.4256 33.0044 41.1651 32.5672C42.5349 32.3487 43.6884 32.6401 44.6977 33.6601L45.9233 34.8987C46.9326 35.773 47.8698 35.773 48.807 34.8258C49.0233 34.6072 49.2395 34.3158 49.3837 34.0244ZM30.0628 14.2072C31.2127 14.2072 32.3119 14.4639 33.4028 14.7187C33.6114 14.7675 33.8197 14.8161 34.0279 14.8629C34.2984 14.9312 34.5689 15.0036 34.8403 15.0761C35.7263 15.3131 36.6223 15.5528 37.5605 15.6643C38.9302 15.81 40.2279 15.6643 41.4535 15.0086C42.607 14.4257 43.0395 13.4057 42.8233 12.0943L42.8232 12.0943C42.7512 11.8028 42.6791 11.5114 42.6791 11.22C42.607 10.8557 42.5349 10.4186 42.9674 10.1272C43.3156 9.91607 43.6637 10.1807 43.9469 10.3959L43.9767 10.4186C44.8419 11.0743 45.5628 11.8757 46.2116 12.75C47.9419 14.9357 49.4558 17.2672 50.6093 19.8172C50.9698 20.5457 51.2581 21.3472 51.2581 22.1486C51.2581 22.5129 51.2581 22.8043 50.9698 23.0229C50.6093 23.2415 50.3209 23.0957 49.9605 22.8772C48.9148 22.2167 48.1061 21.2569 47.3196 20.3233L47.3188 20.3223L47.3165 20.3196C47.2364 20.2246 47.1566 20.1299 47.0768 20.0357C45.7791 18.5057 43.4721 17.85 41.6698 18.4329C40.6605 18.7972 39.9395 19.4529 39.6512 20.4729C39.4349 21.0922 39.2547 21.7115 39.0744 22.3307C38.8942 22.95 38.714 23.5693 38.4977 24.1886C37.7768 26.3015 36.1907 27.3943 34.0279 27.54C29.6302 27.7586 26.314 23.8972 25.6651 20.2543C25.5209 19.5257 25.4488 18.7972 25.593 18.0686C25.9535 15.4457 27.4674 14.2072 30.0628 14.2072ZM20.186 35.4814C20.114 30.9643 16.3651 27.2486 11.8953 27.2486C7.64186 27.2486 4.32558 30.6728 4.32558 34.8257C4.32558 39.3428 8.07442 43.1314 12.6163 43.1314C16.7977 43.1314 20.186 39.7071 20.186 35.4814ZM22.2047 44.5886C20.3302 44.5886 18.8884 45.9729 18.8884 47.8672C18.8884 49.8343 20.5465 51.51 22.4209 51.51C24.2233 51.51 25.7372 49.9072 25.7372 48.0857C25.7372 46.1915 24.0791 44.5886 22.2047 44.5886ZM42.1744 44.9529C44.3643 44.9529 46.1395 42.9957 46.1395 40.5815C46.1395 38.1672 44.3643 36.21 42.1744 36.21C39.9845 36.21 38.2093 38.1672 38.2093 40.5815C38.2093 42.9957 39.9845 44.9529 42.1744 44.9529ZM3.31628 18.9429C1.44186 18.9429 0 20.3272 0 22.2215C0 24.1886 1.58605 25.8643 3.53256 25.8643C5.33488 25.8643 6.84884 24.2615 6.84884 22.4401C6.84884 20.5458 5.1907 18.9429 3.31628 18.9429Z" fill="white"/>
<path fill-rule="evenodd" clip-rule="evenodd" d="M119.789 12.4121V39.0778H125.556V12.4121H119.789ZM75.163 13.8693H62.2583L62.3304 39.0778H68.3862V30.0435H75.0909C81.2188 30.0435 84.8234 26.765 84.8234 21.8107C84.8234 16.8564 81.0025 13.8693 75.163 13.8693ZM74.5862 25.3078H68.3141V18.605H74.5862C77.542 18.605 78.7676 19.8435 78.7676 21.8835C78.7676 24.4335 77.1816 25.3078 74.5862 25.3078ZM85.5444 20.5721V25.5992V39.1506H91.3118V32.3749C91.3118 27.0563 94.2676 25.3806 98.3769 25.4535V20.1349C94.556 19.9892 92.3211 21.8835 91.3118 24.2878C91.3118 23.2678 91.2397 21.2278 91.1676 20.5721H85.5444ZM118.707 29.825C118.707 35.5078 114.814 39.5878 108.038 39.5878C101.261 39.5878 97.7282 34.925 97.7282 29.825C97.7282 24.725 101.333 20.0621 108.254 20.0621C115.175 20.0621 118.707 25.235 118.707 29.825ZM103.568 29.825C103.568 32.6664 105.154 35.1435 108.182 35.1435C111.21 35.1435 112.724 32.7393 112.724 29.8978C112.724 27.0564 111.354 24.5064 108.11 24.5064C104.938 24.5064 103.568 26.9835 103.568 29.825ZM127.719 12.4121H133.486V17.075H127.719V12.4121ZM127.719 20.5721H133.486V39.0778H127.719V20.5721ZM137.523 20.5721H134.207V24.7978H137.523V33.6135C137.523 37.2564 138.821 39.2235 143.363 39.2235C144.733 39.2235 146.03 39.0778 147.04 38.7864V34.7792C146.535 34.9249 145.958 34.9249 145.454 34.9249C143.723 34.9249 143.363 34.1964 143.363 32.5935V24.7978H147.616V20.5721H143.363V15.1078H137.523V20.5721ZM166.649 33.6864V39.0778H161.026C160.986 38.7942 160.968 38.4205 160.948 37.9942V37.9942C160.931 37.6539 160.914 37.2802 160.882 36.8921C159.944 38.3492 158.575 39.5878 154.754 39.5878C150.933 39.5878 147.905 37.3292 147.905 31.8649V20.5721H153.672V30.9178C153.672 33.3949 154.537 35.0706 156.989 35.0706C159.8 35.0706 160.882 33.3949 160.882 29.1692V20.5721H166.649V33.6864ZM177.175 35.5807C174.651 35.5807 173.426 34.7064 172.993 33.395H167.226C167.803 37.475 171.768 39.5878 176.742 39.5878C183.447 39.5878 185.97 36.7464 185.97 33.395C185.97 30.845 184.961 28.3678 177.535 27.2021C174.147 26.6921 173.57 26.255 173.57 25.4535C173.57 24.7978 174.003 23.9235 176.165 23.9235C178.761 23.9235 179.41 24.9435 179.698 25.8178H185.393C185.105 23.1221 182.726 20.0621 176.382 20.0621C170.037 20.0621 167.947 23.195 167.947 26.0364C167.947 28.295 168.884 30.845 175.877 31.865C179.554 32.375 180.347 32.885 180.347 33.905C180.347 34.7793 179.626 35.5807 177.175 35.5807Z" fill="white"/>
</g>
<defs>
<clipPath id="clip0_360_2477">
<rect width="185.97" height="51.0203" fill="white" transform="translate(0 0.489746)"/>
</clipPath>
</defs>
</svg>
